<svg xmlns="http://www.w3.org/2000/svg" width="382" height="126" viewBox="0 0 154.49 42.91"><defs><style>.cls-1{fill:#231815}</style></defs><g id="レイヤー_2" data-name="レイヤー 2"><g id="レイヤー_1-2" data-name="レイヤー 1"><path class="cls-1" d="M131.2 42.91l-6.84-6.25H30.14l-6.85 6.25-6.68-6.59H5.45v-9.51L0 21.46l5.45-5.36V6.59h11.16L23.29 0l6.88 6.29h94.15L131.2 0l6.69 6.59H149v9.51l5.45 5.36-5.45 5.35v9.51h-11.11zM6.64 35.11h10.44l6.24 6.15 6.36-5.82h95.13l6.36 5.82 6.24-6.15h10.44V26.3l4.93-4.84-4.93-4.84V7.81h-10.44l-6.24-6.15-6.39 5.84H29.71l-6.39-5.84-6.24 6.15H6.64v8.81l-4.93 4.84 4.93 4.83z"/><path class="cls-1" d="M28.4 28.23h-5.88v-.56a1.28 1.28 0 00.4-.15.38.38 0 00.18-.35.82.82 0 00-.11-.38c-.08-.13-.16-.26-.25-.38L19.47 22h-4.16v4.78a.87.87 0 00.17.61 1.29 1.29 0 00.61.27v.56h-5v-.56a1.2 1.2 0 00.59-.27.88.88 0 00.16-.61V13.66a.86.86 0 00-.16-.61 1.2 1.2 0 00-.59-.27v-.56h9.79a14 14 0 012.3.2 6.94 6.94 0 012.13.71 4.37 4.37 0 011.58 1.41 4 4 0 01.62 2.3 4.85 4.85 0 01-.32 1.85 4.24 4.24 0 01-.89 1.4 5.2 5.2 0 01-1.38 1 8.71 8.71 0 01-1.76.62l3.29 4.44a5.11 5.11 0 00.89 1 3.1 3.1 0 001.1.57zm-4.29-11.14a1.66 1.66 0 00-.43-1.25 2.5 2.5 0 00-1.07-.63 5.1 5.1 0 00-1.37-.21h-5.93v4.4h6.01a4.69 4.69 0 001.33-.27 2.35 2.35 0 001-.68 1.84 1.84 0 00.46-1.36zM40.1 27.85c-.32.12-.63.22-.93.31a6.51 6.51 0 01-.92.21 14.429 14.429 0 01-2.24.17 9.75 9.75 0 01-2.71-.37A6 6 0 0131.11 27a5.22 5.22 0 01-1.44-1.91 6.38 6.38 0 01-.53-2.74 5.88 5.88 0 01.54-2.55 5.44 5.44 0 011.46-1.91 6.54 6.54 0 012.13-1.2 7.86 7.86 0 012.59-.42 7.45 7.45 0 012.45.39 5.69 5.69 0 012 1.13 5.1 5.1 0 011.29 1.84 6.47 6.47 0 01.4 2.56.82.82 0 00.42.86v.47h-10a2.62 2.62 0 00.37 1.08 2.75 2.75 0 00.79.84 3.69 3.69 0 001.15.54 5 5 0 001.43.19 9.09 9.09 0 002-.2 4.68 4.68 0 001.25-.42 2.6 2.6 0 00.45-.37.49.49 0 00.14-.49l.51-.27 1.66 3-.49.25a.87.87 0 00-.68-.07 8 8 0 00-.9.25zM39 21.24a2.84 2.84 0 00-1-1.84 3.38 3.38 0 00-2.15-.66 3.7 3.7 0 00-2.2.66 3.1 3.1 0 00-1.22 1.84zm18.89 6.99h-3.84v-1a4.36 4.36 0 01-1.54.93 6.34 6.34 0 01-2.15.35 7 7 0 01-2.45-.42 5.8 5.8 0 01-2-1.2 5.51 5.51 0 01-1.33-1.93 6.37 6.37 0 01-.49-2.57 6.37 6.37 0 01.49-2.57 5.39 5.39 0 011.33-1.9 5.75 5.75 0 012-1.18 7.28 7.28 0 012.45-.41 6.08 6.08 0 012.12.35 6 6 0 011.57.87v-3.91a.92.92 0 00-.15-.64 1 1 0 00-.56-.25v-.56h3.85v14.62a.88.88 0 00.14.6 1.21 1.21 0 00.56.26zM54.05 22a3 3 0 00-.28-1.33 3 3 0 00-.73-1A3.41 3.41 0 0052 19a3.32 3.32 0 00-1.2-.23 3.77 3.77 0 00-1.49.25 3.46 3.46 0 00-1.16.77 3.3 3.3 0 00-.76 1.16 4.29 4.29 0 000 2.94 3.43 3.43 0 00.76 1.11 3.32 3.32 0 001.16.77 3.6 3.6 0 001.49.23 3.32 3.32 0 001.2-.23 3.41 3.41 0 001-.66 3.14 3.14 0 001-2.36zm30.87-9.22A2.11 2.11 0 0083.55 14L78 26.41a1.16 1.16 0 000 .72.78.78 0 00.68.54v.56H72.9v-.56a1.77 1.77 0 00.52-.27.64.64 0 00.2-.31.54.54 0 000-.33c0-.11-.09-.23-.13-.35L68 14.3a4.82 4.82 0 00-.58-.94 1.79 1.79 0 00-1-.58v-.56H72v.56a1.42 1.42 0 00-.35.11.55.55 0 00-.26.18.5.5 0 00-.11.32 1 1 0 00.14.51l4.44 9.71 4.31-9.93a1.34 1.34 0 00.07-.27.45.45 0 000-.28.57.57 0 00-.24-.22 1.21 1.21 0 00-.47-.13v-.56h5.39zm9.23 15.07l-.93.31a6.84 6.84 0 01-.92.21c-.32.05-.66.09-1 .12s-.78.05-1.24.05a9.68 9.68 0 01-2.7-.37 5.83 5.83 0 01-2.2-1.17 5.24 5.24 0 01-1.45-1.91 6.53 6.53 0 01-.53-2.74 5.88 5.88 0 01.54-2.55 5.56 5.56 0 011.46-1.91 6.54 6.54 0 012.13-1.2 7.9 7.9 0 012.59-.42 7.45 7.45 0 012.45.39 5.51 5.51 0 012 1.13 5.1 5.1 0 011.29 1.84 6.47 6.47 0 01.47 2.52.79.79 0 00.42.86v.47h-10a2.47 2.47 0 00.36 1.08 2.78 2.78 0 00.8.84 3.49 3.49 0 001.15.54 4.93 4.93 0 001.42.19 9 9 0 002-.2 4.55 4.55 0 001.25-.42 2.6 2.6 0 00.45-.37.52.52 0 00.15-.49l.51-.27 1.65 3-.48.25a.87.87 0 00-.79-.03 7.36 7.36 0 00-.85.25zm-1.09-6.61a2.8 2.8 0 00-1-1.84 3.35 3.35 0 00-2.14-.66 3.65 3.65 0 00-2.2.66 3.16 3.16 0 00-1.23 1.84zm9.72-9.02v14.57a.94.94 0 00.15.61 1.07 1.07 0 00.56.27v.56h-4.6v-.56a1.26 1.26 0 00.57-.26.94.94 0 00.14-.6V13.66a1 1 0 00-.14-.61 1.16 1.16 0 00-.57-.27v-.56zm7.78 14.61l-4-8.59a2.56 2.56 0 00-.5-.73 1.14 1.14 0 00-.74-.38v-.55h5v.55a.74.74 0 00-.56.31.56.56 0 000 .6l2.7 6.12 2.7-6.16a1 1 0 00.11-.58q0-.23-.51-.33v-.55h4.69v.55a1.35 1.35 0 00-.75.38 1.91 1.91 0 00-.51.7l-4 8.62a.73.73 0 000 .54c0 .17.22.27.5.3v.56h-4.49v-.56c.32 0 .5-.15.52-.33a1 1 0 00-.16-.47zm20.33 1.02c-.32.12-.63.22-.93.31a6.7 6.7 0 01-.91.21c-.32.05-.66.09-1 .12s-.78.05-1.24.05a9.75 9.75 0 01-2.71-.37 5.87 5.87 0 01-2.19-1.17 5.14 5.14 0 01-1.45-1.91 6.38 6.38 0 01-.53-2.74 5.88 5.88 0 01.54-2.55 5.56 5.56 0 011.46-1.91 6.54 6.54 0 012.13-1.2 7.86 7.86 0 012.59-.42 7.45 7.45 0 012.45.39 5.6 5.6 0 012 1.13 5.1 5.1 0 011.29 1.84 6.47 6.47 0 01.46 2.52.82.82 0 00.42.86v.47h-10a2.47 2.47 0 00.36 1.08 2.66 2.66 0 00.8.84 3.53 3.53 0 001.14.54 5 5 0 001.43.19 9.09 9.09 0 002-.2 4.55 4.55 0 001.25-.42 2.6 2.6 0 00.45-.37.49.49 0 00.14-.49l.51-.27 1.66 3-.49.25a.87.87 0 00-.74-.12 8.74 8.74 0 00-.89.34zm-1.08-6.61a2.8 2.8 0 00-1-1.84 3.37 3.37 0 00-2.14-.66 3.65 3.65 0 00-2.2.66 3.12 3.12 0 00-1.23 1.84zm5.72 2.85v-5.88a1.23 1.23 0 00-.24-.76 1 1 0 00-.82-.32v-.55a5.41 5.41 0 001.35-.71 6.53 6.53 0 001.05-1 7.07 7.07 0 00.77-1.1 6.17 6.17 0 00.5-1.05h.58v3.83h3.42a.68.68 0 00.29-.06.53.53 0 00.23-.16.49.49 0 00.1-.34h.53v3.85h-.53a.72.72 0 00-.1-.4.63.63 0 00-.23-.23.91.91 0 00-.29-.1h-3.42v4.66a2.35 2.35 0 00.16.95 1.55 1.55 0 001.07.93 2.55 2.55 0 00.73.07 4.89 4.89 0 00.68-.12 2.2 2.2 0 00.64-.29 1.35 1.35 0 00.43-.46.8.8 0 00.07-.61l-.09-.29.55-.18 1.26 4.29-.53.16a.75.75 0 00-.32-.29.43.43 0 00-.41 0 7.07 7.07 0 01-1.05.36 5.08 5.08 0 01-1.2.19 7.67 7.67 0 01-1.53-.1 5.7 5.7 0 01-1.3-.36 3.6 3.6 0 01-1.72-1.43 4.56 4.56 0 01-.63-2.5z"/></g></g></svg>